<svg xmlns="http://www.w3.org/2000/svg" viewBox="0 0 184.83 214.83"><defs><style>.cls-1{fill:#f2e3b3;}.cls-2{fill:none;stroke:#231f20;stroke-miterlimit:10;stroke-width:16px;}</style></defs><title>SmallNoteIcon</title><g id="Layer_2" data-name="Layer 2"><rect class="cls-1" y="30" width="184.83" height="184.83"/><polygon class="cls-1" points="92.42 0 49.12 45.67 135.72 45.67 92.42 0"/></g><g id="Layer_1" data-name="Layer 1"><g id="Layer_3" data-name="Layer 3"><path class="cls-2" d="M120.08,135.33h51.2a11.14,11.14,0,0,1,11.1,11.1v51.2a11.14,11.14,0,0,1-11.1,11.1h-51.2a11.14,11.14,0,0,1-11.1-11.1v-51.2A11.14,11.14,0,0,1,120.08,135.33Z" transform="translate(-35 -31.33)"/><path class="cls-2" d="M82.78,98.33H134a11.14,11.14,0,0,1,11.1,11.1v51.2a11.14,11.14,0,0,1-11.1,11.1H82.78a11.23,11.23,0,0,1-11.1-11.2v-51.1A11.14,11.14,0,0,1,82.78,98.33Z" transform="translate(-35 -31.33)"/></g></g></svg>