<svg id="Layer_1" data-name="Layer 1" xmlns="http://www.w3.org/2000/svg" viewBox="0 0 660.1 560.1"><title>AddFolder</title><path d="M96.67,526.7A96.78,96.78,0,0,1,0,430.05V96.7A96.69,96.69,0,0,1,96.65,0h153a63,63,0,0,1,44.83,18.6l48.1,48.1h220.9a96.69,96.69,0,0,1,96.67,96.65V230.1a30,30,0,1,1-60,0V163.4a36.69,36.69,0,0,0-36.68-36.7H330.1a30,30,0,0,1-21.21-8.79L252,61a3.38,3.38,0,0,0-2.42-1H96.7A36.73,36.73,0,0,0,60,96.69V430a36.73,36.73,0,0,0,36.68,36.7H330a30,30,0,0,1,0,60H96.67Z" transform="translate(0)"/><path d="M530,560.1a30,30,0,0,1-30-30v-70H430a30,30,0,0,1,0-60h70v-70a30,30,0,0,1,60,0v70h70a30,30,0,0,1,0,60H560v70A30,30,0,0,1,530,560.1Z" transform="translate(0)"/></svg>