<svg id="Layer_1" data-name="Layer 1" xmlns="http://www.w3.org/2000/svg" viewBox="0 0 26 14"><defs><style>.cls-1{fill:#929292;}</style></defs><title>EyeOpen</title><g id="Page-1"><g id="icon-22-eye"><path id="eye" class="cls-1" d="M17,13a3,3,0,1,0,3,3A3,3,0,0,0,17,13Zm0,4a1,1,0,1,1,1-1A1,1,0,0,1,17,17Zm0-4a3,3,0,1,0,3,3A3,3,0,0,0,17,13Zm0,4a1,1,0,1,1,1-1A1,1,0,0,1,17,17Zm0-8A15.36,15.36,0,0,0,4,16a15.36,15.36,0,0,0,13,7,15.36,15.36,0,0,0,13-7A15.36,15.36,0,0,0,17,9Zm0,11a4,4,0,1,1,4-4A4,4,0,0,1,17,20Zm0-7a3,3,0,1,0,3,3A3,3,0,0,0,17,13Zm0,4a1,1,0,1,1,1-1A1,1,0,0,1,17,17Zm0-4a3,3,0,1,0,3,3A3,3,0,0,0,17,13Zm0,4a1,1,0,1,1,1-1A1,1,0,0,1,17,17Zm0-4a3,3,0,1,0,3,3A3,3,0,0,0,17,13Zm0,4a1,1,0,1,1,1-1A1,1,0,0,1,17,17Z" transform="translate(-4 -9)"/></g></g></svg>