<svg id="Layer_1" data-name="Layer 1" xmlns="http://www.w3.org/2000/svg" viewBox="0 0 650 316.67"><title>Link</title><path class="cls-1" d="M300,558.33H233.33c-67.47,0-104.63,0-131.48-26.85S75,467.47,75,400s0-104.64,26.85-131.48,64-26.85,131.48-26.85H300a25,25,0,0,1,0,50H233.33c-58.19,0-84.42.49-96.13,12.2S125,341.8,125,400s.49,84.42,12.2,96.13,37.94,12.2,96.13,12.2H300a25,25,0,0,1,0,50Z" transform="translate(-75 -241.67)"/><path class="cls-1" d="M566.67,558.33H500a25,25,0,1,1,0-50h66.67c58.19,0,84.41-.49,96.13-12.2S675,458.2,675,400s-.49-84.42-12.2-96.13-37.94-12.2-96.13-12.2H500a25,25,0,1,1,0-50h66.67c67.47,0,104.63,0,131.48,26.84S725,332.53,725,400s0,104.64-26.85,131.48S634.14,558.33,566.67,558.33Z" transform="translate(-75 -241.67)"/><path class="cls-1" d="M533.33,425H266.67a25,25,0,0,1,0-50H533.33a25,25,0,0,1,0,50Z" transform="translate(-75 -241.67)"/></svg>