<?xml version="1.0" encoding="utf-8"?>
<!-- Generator: Adobe Illustrator 22.0.1, SVG Export Plug-In . SVG Version: 6.00 Build 0)  -->
<svg version="1.1" id="Layer_1" xmlns="http://www.w3.org/2000/svg" xmlns:xlink="http://www.w3.org/1999/xlink" x="0px" y="0px"
	 viewBox="0 0 24 28" style="enable-background:new 0 0 24 28;" xml:space="preserve">
<g id="logout">
	<path d="M23,15H10c-0.6,0-1-0.4-1-1s0.4-1,1-1h13c0.6,0,1,0.4,1,1S23.5,15,23,15z"/>
	<path d="M18,23v3H2V2h16v3h2V1c0-0.6-0.4-1-1-1H1C0.4,0,0,0.4,0,1v26c0,0.6,0.4,1,1,1h18c0.6,0,1-0.4,1-1v-4H18z"/>
	<path d="M19,19c-0.3,0-0.5-0.1-0.7-0.3c-0.4-0.4-0.4-1,0-1.4l4-4c0.4-0.4,1-0.4,1.4,0s0.4,1,0,1.4l-4,4C19.5,18.9,19.2,19,19,19z"
		/>
	<path d="M23,15c-0.3,0-0.5-0.1-0.7-0.3l-4-4c-0.4-0.4-0.4-1,0-1.4s1-0.4,1.4,0l4,4c0.4,0.4,0.4,1,0,1.4C23.5,14.9,23.2,15,23,15z"
		/>
	<path d="M19,7.1c-0.6,0-1-0.4-1-1v-2c0-0.6,0.4-1,1-1s1,0.4,1,1v2C20,6.6,19.5,7.1,19,7.1z"/>
	<path d="M19,25c-0.6,0-1-0.4-1-1v-2c0-0.6,0.4-1,1-1s1,0.4,1,1v2C20,24.6,19.5,25,19,25z"/>
</g>
</svg>
