<svg id="Layer_1" data-name="Layer 1" xmlns="http://www.w3.org/2000/svg" viewBox="0 0 730.14 126.33"><defs><style>.cls-1{isolation:isolate;}.cls-2{fill:#231f20;}.cls-3{fill:none;stroke:#231f20;stroke-miterlimit:10;stroke-width:16px;}</style></defs><title>NoteworthyBlack2</title><g id="Layer_2" data-name="Layer 2"><g class="cls-1"><g class="cls-1"><path class="cls-2" d="M192.22,100.88q-7.42-13.17-16.06-26a264.07,264.07,0,0,0-18.38-24.25v50.27H140.73V24.14h14.06q3.66,3.66,8.08,9t9,11.35q4.59,6,9.13,12.52t8.53,12.45V24.14h17.16v76.74Z"/><path class="cls-2" d="M273.38,71.65a37.77,37.77,0,0,1-2,12.56A27.24,27.24,0,0,1,265.63,94a25.94,25.94,0,0,1-9,6.26,30.26,30.26,0,0,1-11.8,2.21,29.94,29.94,0,0,1-11.68-2.21,25.94,25.94,0,0,1-9-6.26,28.51,28.51,0,0,1-5.87-9.75,36.06,36.06,0,0,1-2.1-12.56,34.82,34.82,0,0,1,2.15-12.52,28.55,28.55,0,0,1,6-9.63,27,27,0,0,1,9.08-6.2,29.19,29.19,0,0,1,11.46-2.21,29.51,29.51,0,0,1,11.58,2.21,26.33,26.33,0,0,1,9,6.2,28.16,28.16,0,0,1,5.87,9.63A35.71,35.71,0,0,1,273.38,71.65Zm-16.83,0q0-7.65-3-12a10,10,0,0,0-8.7-4.37,10.09,10.09,0,0,0-8.74,4.37Q233,64,233,71.65t3.1,12.12a10,10,0,0,0,8.74,4.49,9.89,9.89,0,0,0,8.7-4.49Q256.56,79.29,256.55,71.65Z"/></g><g class="cls-1"><path class="cls-2" d="M282,28.13l16.5-2.66V42.64h19.82V56.37H298.52V76.85a16.41,16.41,0,0,0,1.82,8.31c1.22,2.06,3.67,3.1,7.37,3.1a31.73,31.73,0,0,0,5.48-.5,27.39,27.39,0,0,0,5.15-1.39l2.32,12.85a47.21,47.21,0,0,1-6.64,2.1,38.77,38.77,0,0,1-9,.89,29.46,29.46,0,0,1-11.18-1.83,17.48,17.48,0,0,1-7.09-5.09,19,19,0,0,1-3.71-7.92A46.8,46.8,0,0,1,282,77.07Z"/></g><g class="cls-1"><path class="cls-2" d="M322.77,72.2a35.7,35.7,0,0,1,2.38-13.56A29.11,29.11,0,0,1,331.41,49a25.9,25.9,0,0,1,8.91-5.87,27.89,27.89,0,0,1,10.36-2q12.39,0,19.6,7.58T377.47,71c0,1,0,2-.11,3.16s-.15,2.16-.22,3H339.71a11,11,0,0,0,4.77,8.09q4.2,3,11.29,3a47.87,47.87,0,0,0,8.91-.83,34.24,34.24,0,0,0,7.15-2.05L374,98.78a22.84,22.84,0,0,1-3.54,1.32,44.3,44.3,0,0,1-4.93,1.17q-2.71.49-5.81.83a58.67,58.67,0,0,1-6.2.33,36.52,36.52,0,0,1-13.68-2.33,26.56,26.56,0,0,1-9.63-6.36,25.32,25.32,0,0,1-5.65-9.58A37.9,37.9,0,0,1,322.77,72.2Zm38.76-6.31a17.71,17.71,0,0,0-.72-4.1,10.39,10.39,0,0,0-1.88-3.54,10.11,10.11,0,0,0-3.22-2.55,10.48,10.48,0,0,0-4.81-1,11,11,0,0,0-4.76.94,9.84,9.84,0,0,0-3.33,2.49,11.16,11.16,0,0,0-2,3.6,24.3,24.3,0,0,0-1.06,4.15Z"/></g><g class="cls-1"><path class="cls-2" d="M421.71,67.44q-2.22,8.41-4.71,16.72t-5.26,16.72H398.9q-2-4.65-4.33-11.07t-4.83-14q-2.5-7.59-5.11-16.06t-5.05-17.1H397c.6,2.65,1.24,5.55,2,8.69s1.45,6.37,2.23,9.69,1.6,6.66,2.45,10,1.73,6.59,2.62,9.69q1.44-4.87,2.82-10t2.66-10c.85-3.28,1.66-6.46,2.44-9.52s1.45-5.93,2-8.58h12c.59,2.65,1.26,5.52,2,8.58s1.51,6.24,2.32,9.52,1.66,6.63,2.55,10,1.81,6.72,2.77,10q1.34-4.65,2.67-9.69T443,61c.77-3.32,1.52-6.55,2.22-9.69s1.36-6,1.95-8.69h17.17q-2.44,8.63-5.06,17.1T454.12,75.8q-2.49,7.59-4.88,14t-4.39,11.07H432q-2.77-8.41-5.43-16.72T421.71,67.44Z"/></g><g class="cls-1"><path class="cls-2" d="M522.19,71.65a37.77,37.77,0,0,1-2,12.56A27.24,27.24,0,0,1,514.44,94a25.89,25.89,0,0,1-9,6.26,32.26,32.26,0,0,1-23.47,0,25.76,25.76,0,0,1-9-6.26,28.36,28.36,0,0,1-5.87-9.75,35.83,35.83,0,0,1-2.11-12.56,34.82,34.82,0,0,1,2.16-12.52,28.55,28.55,0,0,1,6-9.63,26.87,26.87,0,0,1,9.08-6.2,31.1,31.1,0,0,1,23,0,26.28,26.28,0,0,1,9,6.2,28.31,28.31,0,0,1,5.87,9.63A35.71,35.71,0,0,1,522.19,71.65Zm-16.83,0q0-7.65-3.05-12a10,10,0,0,0-8.69-4.37,10.12,10.12,0,0,0-8.75,4.37q-3.09,4.38-3.1,12t3.1,12.12a10,10,0,0,0,8.75,4.49,9.88,9.88,0,0,0,8.69-4.49Q505.35,79.29,505.36,71.65Z"/><path class="cls-2" d="M565.6,57.25c-1.48-.37-3.22-.75-5.21-1.16a31.81,31.81,0,0,0-6.42-.61,28.78,28.78,0,0,0-3.71.28,20.33,20.33,0,0,0-3.27.61v44.51h-16.5V45.74A99.36,99.36,0,0,1,541,42.8a60.39,60.39,0,0,1,13.45-1.38c.89,0,2,0,3.21.16s2.51.26,3.77.45,2.51.4,3.76.66a17.5,17.5,0,0,1,3.21.94Z"/><path class="cls-2" d="M572.24,28.13l16.5-2.66V42.64h19.82V56.37H588.74V76.85a16.3,16.3,0,0,0,1.83,8.31c1.21,2.06,3.67,3.1,7.36,3.1a31.73,31.73,0,0,0,5.48-.5,27.39,27.39,0,0,0,5.15-1.39l2.32,12.85a46.79,46.79,0,0,1-6.64,2.1,38.77,38.77,0,0,1-9,.89,29.46,29.46,0,0,1-11.18-1.83A17.48,17.48,0,0,1,577,95.29a19,19,0,0,1-3.71-7.92,46.8,46.8,0,0,1-1-10.3Z"/></g><g class="cls-1"><path class="cls-2" d="M618.86,100.88V17.61L635.36,15V42.86a34,34,0,0,1,4.26-1,26.24,26.24,0,0,1,5-.5,31,31,0,0,1,11.79,1.94A18.19,18.19,0,0,1,664,48.73a21,21,0,0,1,4,8.41A46.59,46.59,0,0,1,669.13,68v32.89h-16.5V70q0-8-2-11.3T643,55.37a21,21,0,0,0-4.15.39c-1.29.26-2.46.53-3.49.83v44.29Z"/></g><g class="cls-1"><path class="cls-2" d="M730.14,42.64q-5,16.83-10.43,31.55t-11.88,28.57a64.42,64.42,0,0,1-4.66,8.47,25.78,25.78,0,0,1-5.1,5.76,18,18,0,0,1-6.27,3.32,28.3,28.3,0,0,1-8.14,1.06,34,34,0,0,1-7.16-.72,33,33,0,0,1-5.38-1.61L674,105.86a28.37,28.37,0,0,0,4.54,1.22,25.88,25.88,0,0,0,4.22.33q4.43,0,6.81-2.38a19.11,19.11,0,0,0,4-6.59Q688,87.37,682.31,73.58a308,308,0,0,1-10.63-30.94h17.49c.74,2.87,1.62,6,2.62,9.35s2.05,6.76,3.17,10.19,2.24,6.77,3.39,10,2.24,6.2,3.28,8.86q1.44-4,3-8.86t3.06-10Q709.19,57,710.58,52t2.5-9.35Z"/></g></g></g><g id="Layer_3" data-name="Layer 3"><rect class="cls-3" x="45.33" y="45" width="73.33" height="73.33" rx="11.09" ry="11.09"/><rect class="cls-3" x="8" y="8" width="73.33" height="73.33" rx="11.09" ry="11.09"/></g></svg>