<?xml version="1.0" encoding="utf-8"?>
<!-- Generator: Adobe Illustrator 22.0.1, SVG Export Plug-In . SVG Version: 6.00 Build 0)  -->
<svg version="1.1" id="Layer_1" xmlns="http://www.w3.org/2000/svg" xmlns:xlink="http://www.w3.org/1999/xlink" x="0px" y="0px"
	 viewBox="0 0 730.1 126.3" style="enable-background:new 0 0 730.1 126.3;" xml:space="preserve">
<style type="text/css">
	.st0{enable-background:new    ;}
	.st1{fill:#231F20;}
	.st2{fill:none;stroke:#231F20;stroke-width:16;stroke-miterlimit:10;}
</style>
<title>NoteworthyBlack</title>
<g id="Layer_2_1_">
	<g class="st0">
		<path class="st1" d="M192.2,100.9c-4.9-8.8-10.3-17.5-16.1-26c-5.8-8.6-11.9-16.6-18.4-24.3v50.3h-17.1V24.1h14.1
			c2.4,2.4,5.1,5.4,8.1,9c3,3.5,6,7.3,9,11.3c3.1,4,6.1,8.2,9.1,12.5c3,4.3,5.9,8.5,8.5,12.5V24.1h17.2v76.7H192.2z"/>
		<path class="st1" d="M273.4,71.6c0,4.6-0.7,8.8-2,12.6c-1.3,3.8-3.2,7.1-5.8,9.7c-2.5,2.7-5.5,4.8-9,6.3
			c-3.5,1.5-7.4,2.2-11.8,2.2c-4.3,0-8.2-0.7-11.7-2.2c-3.5-1.5-6.5-3.6-9-6.3c-2.5-2.7-4.5-5.9-5.9-9.7c-1.4-3.8-2.1-8-2.1-12.6
			c0-4.6,0.7-8.7,2.2-12.5s3.4-7,6-9.6s5.6-4.7,9.1-6.2c3.5-1.5,7.3-2.2,11.5-2.2c4.2,0,8.1,0.7,11.6,2.2c3.5,1.5,6.5,3.5,9,6.2
			c2.5,2.7,4.5,5.9,5.9,9.6C272.7,62.9,273.4,67.1,273.4,71.6z M256.6,71.6c0-5.1-1-9.1-3-12c-2-2.9-4.9-4.4-8.7-4.4
			c-3.8,0-6.7,1.5-8.7,4.4c-2.1,2.9-3.1,6.9-3.1,12s1,9.1,3.1,12.1c2.1,3,5,4.5,8.7,4.5c3.8,0,6.7-1.5,8.7-4.5
			C255.5,80.8,256.6,76.7,256.6,71.6z"/>
	</g>
	<g class="st0">
		<path class="st1" d="M282,28.1l16.5-2.7v17.2h19.8v13.7h-19.8v20.5c0,3.5,0.6,6.2,1.8,8.3c1.2,2.1,3.7,3.1,7.4,3.1
			c1.8,0,3.6-0.2,5.5-0.5c1.9-0.3,3.6-0.8,5.1-1.4l2.3,12.8c-2,0.8-4.2,1.5-6.6,2.1c-2.4,0.6-5.4,0.9-9,0.9c-4.5,0-8.2-0.6-11.2-1.8
			c-3-1.2-5.3-2.9-7.1-5.1c-1.8-2.2-3-4.8-3.7-7.9c-0.7-3.1-1.1-6.5-1.1-10.3V28.1z"/>
	</g>
	<g class="st0">
		<path class="st1" d="M322.8,72.2c0-5.2,0.8-9.7,2.4-13.6c1.6-3.9,3.7-7.1,6.3-9.7c2.6-2.6,5.6-4.5,8.9-5.9c3.4-1.3,6.8-2,10.4-2
			c8.3,0,14.8,2.5,19.6,7.6c4.8,5.1,7.2,12.5,7.2,22.3c0,1,0,2-0.1,3.2c-0.1,1.1-0.1,2.2-0.2,3h-37.4c0.4,3.4,2,6.1,4.8,8.1
			c2.8,2,6.6,3,11.3,3c3,0,6-0.3,8.9-0.8c2.9-0.6,5.3-1.2,7.1-2l2.2,13.4c-0.9,0.4-2.1,0.9-3.5,1.3c-1.5,0.4-3.1,0.8-4.9,1.2
			c-1.8,0.3-3.7,0.6-5.8,0.8c-2.1,0.2-4.1,0.3-6.2,0.3c-5.2,0-9.8-0.8-13.7-2.3c-3.9-1.5-7.1-3.7-9.6-6.4c-2.5-2.7-4.4-5.9-5.6-9.6
			C323.4,80.5,322.8,76.5,322.8,72.2z M361.5,65.9c-0.1-1.4-0.3-2.8-0.7-4.1c-0.4-1.3-1-2.5-1.9-3.5c-0.8-1-1.9-1.9-3.2-2.5
			c-1.3-0.7-2.9-1-4.8-1c-1.8,0-3.4,0.3-4.8,0.9c-1.3,0.6-2.4,1.5-3.3,2.5c-0.9,1-1.6,2.2-2,3.6c-0.5,1.4-0.8,2.8-1.1,4.2H361.5z"/>
	</g>
	<g class="st0">
		<path class="st1" d="M421.7,67.4c-1.5,5.6-3,11.2-4.7,16.7c-1.7,5.5-3.4,11.1-5.3,16.7h-12.8c-1.3-3.1-2.8-6.8-4.3-11.1
			c-1.6-4.3-3.2-9-4.8-14c-1.7-5.1-3.4-10.4-5.1-16.1c-1.7-5.6-3.4-11.4-5.1-17.1H397c0.6,2.7,1.2,5.6,1.9,8.7
			c0.7,3.1,1.4,6.4,2.2,9.7c0.8,3.3,1.6,6.7,2.5,10c0.9,3.4,1.7,6.6,2.6,9.7c1-3.2,1.9-6.6,2.8-10c0.9-3.4,1.8-6.7,2.7-10
			c0.8-3.3,1.7-6.5,2.4-9.5c0.8-3.1,1.5-5.9,2-8.6h12c0.6,2.7,1.3,5.5,2,8.6c0.7,3.1,1.5,6.2,2.3,9.5c0.8,3.3,1.7,6.6,2.5,10
			c0.9,3.4,1.8,6.7,2.8,10c0.9-3.1,1.8-6.3,2.7-9.7c0.9-3.4,1.7-6.7,2.5-10c0.8-3.3,1.5-6.5,2.2-9.7c0.7-3.1,1.4-6,2-8.7h17.2
			c-1.6,5.8-3.3,11.5-5.1,17.1c-1.7,5.6-3.4,11-5.1,16.1c-1.7,5.1-3.3,9.7-4.9,14c-1.6,4.3-3.1,8-4.4,11.1H432
			c-1.8-5.6-3.7-11.2-5.4-16.7C424.8,78.6,423.2,73.1,421.7,67.4z"/>
	</g>
	<g class="st0">
		<path class="st1" d="M522.2,71.6c0,4.6-0.7,8.8-2,12.6c-1.3,3.8-3.3,7.1-5.8,9.7c-2.5,2.7-5.5,4.8-9,6.3
			c-3.5,1.5-7.4,2.2-11.8,2.2c-4.3,0-8.2-0.7-11.7-2.2c-3.5-1.5-6.5-3.6-9-6.3c-2.5-2.7-4.5-5.9-5.9-9.7c-1.4-3.8-2.1-8-2.1-12.6
			c0-4.6,0.7-8.7,2.2-12.5s3.4-7,6-9.6s5.6-4.7,9.1-6.2c3.5-1.5,7.3-2.2,11.5-2.2c4.2,0,8.1,0.7,11.6,2.2c3.5,1.5,6.5,3.5,9,6.2
			c2.5,2.7,4.5,5.9,5.9,9.6S522.2,67.1,522.2,71.6z M505.4,71.6c0-5.1-1-9.1-3-12c-2-2.9-4.9-4.4-8.7-4.4s-6.7,1.5-8.7,4.4
			c-2.1,2.9-3.1,6.9-3.1,12s1,9.1,3.1,12.1c2.1,3,5,4.5,8.7,4.5s6.7-1.5,8.7-4.5C504.3,80.8,505.4,76.7,505.4,71.6z"/>
		<path class="st1" d="M565.6,57.3c-1.5-0.4-3.2-0.8-5.2-1.2c-2-0.4-4.1-0.6-6.4-0.6c-1,0-2.3,0.1-3.7,0.3c-1.4,0.2-2.5,0.4-3.3,0.6
			v44.5h-16.5V45.7c3-1,6.4-2,10.5-2.9c4-0.9,8.5-1.4,13.5-1.4c0.9,0,2,0.1,3.2,0.2c1.3,0.1,2.5,0.3,3.8,0.4
			c1.3,0.2,2.5,0.4,3.8,0.7c1.3,0.3,2.3,0.6,3.2,0.9L565.6,57.3z"/>
		<path class="st1" d="M572.2,28.1l16.5-2.7v17.2h19.8v13.7h-19.8v20.5c0,3.5,0.6,6.2,1.8,8.3c1.2,2.1,3.7,3.1,7.4,3.1
			c1.8,0,3.6-0.2,5.5-0.5c1.9-0.3,3.6-0.8,5.1-1.4l2.3,12.8c-2,0.8-4.2,1.5-6.6,2.1c-2.4,0.6-5.4,0.9-9,0.9c-4.5,0-8.2-0.6-11.2-1.8
			c-3-1.2-5.3-2.9-7.1-5.1c-1.8-2.2-3-4.8-3.7-7.9c-0.7-3.1-1.1-6.5-1.1-10.3V28.1z"/>
	</g>
	<g class="st0">
		<path class="st1" d="M618.9,100.9V17.6l16.5-2.7v27.9c1.1-0.4,2.5-0.7,4.3-1.1c1.7-0.3,3.4-0.5,5-0.5c4.7,0,8.7,0.6,11.8,1.9
			c3.1,1.3,5.6,3.1,7.5,5.5c1.9,2.4,3.2,5.2,4,8.4c0.8,3.2,1.2,6.9,1.2,10.9v32.9h-16.5V70c0-5.3-0.7-9.1-2-11.3
			c-1.4-2.2-3.9-3.3-7.6-3.3c-1.5,0-2.9,0.1-4.2,0.4c-1.3,0.3-2.5,0.5-3.5,0.8v44.3H618.9z"/>
	</g>
	<g class="st0">
		<path class="st1" d="M730.1,42.6c-3.3,11.2-6.8,21.7-10.4,31.6c-3.6,9.8-7.6,19.3-11.9,28.6c-1.6,3.3-3.1,6.1-4.7,8.5
			c-1.6,2.3-3.3,4.2-5.1,5.8c-1.8,1.5-3.9,2.6-6.3,3.3c-2.3,0.7-5,1.1-8.1,1.1c-2.6,0-5-0.2-7.2-0.7c-2.2-0.5-4-1-5.4-1.6l2.9-13.2
			c1.7,0.6,3.2,1,4.5,1.2c1.3,0.2,2.7,0.3,4.2,0.3c3,0,5.2-0.8,6.8-2.4c1.6-1.6,2.9-3.8,4-6.6c-3.8-7.4-7.5-15.7-11.3-24.9
			s-7.3-19.5-10.6-30.9h17.5c0.7,2.9,1.6,6,2.6,9.4c1,3.4,2.1,6.8,3.2,10.2c1.1,3.4,2.2,6.8,3.4,10c1.1,3.2,2.2,6.2,3.3,8.9
			c1-2.7,2-5.6,3-8.9c1-3.2,2.1-6.6,3.1-10s2-6.8,2.9-10.2c0.9-3.4,1.8-6.5,2.5-9.4H730.1z"/>
	</g>
</g>
<g id="Layer_3">
	<path class="st2" d="M56.4,45h51.2c6.1,0,11.1,5,11.1,11.1v51.2c0,6.1-5,11.1-11.1,11.1H56.4c-6.1,0-11.1-5-11.1-11.1V56.1
		C45.3,50,50.3,45,56.4,45z"/>
	<path class="st2" d="M19.1,8h51.2c6.1,0,11.1,5,11.1,11.1v51.2c0,6.1-5,11.1-11.1,11.1H19.1C13,81.3,8,76.4,8,70.2V19.1
		C8,13,13,8,19.1,8z"/>
</g>
</svg>
