<svg id="Layer_1" data-name="Layer 1" xmlns="http://www.w3.org/2000/svg" viewBox="0 0 19.6 19.9"><g id="Page-1"><g id="Core"><g id="settings"><path id="Shape" d="M17.4,11.05c0-.3.1-.6.1-1a3.08,3.08,0,0,0-.1-1l2.1-1.7a.47.47,0,0,0,.1-.6l-2-3.5a.56.56,0,0,0-.6-.1l-2.5,1a9.5,9.5,0,0,0-1.7-1L12.4.55a.4.4,0,0,0-.4-.5H8c-.2,0-.5.2-.5.4l-.4,2.7a7.54,7.54,0,0,0-1.7,1L3,3.15a.62.62,0,0,0-.7.2l-2,3.5c-.1.1,0,.4.2.6l2.1,1.6c0,.3-.1.6-.1,1a3.08,3.08,0,0,0,.1,1L.5,12.75a.47.47,0,0,0-.1.6l2,3.5A.56.56,0,0,0,3,17l2.5-1a9.5,9.5,0,0,0,1.7,1l.4,2.6a.46.46,0,0,0,.5.4h4c.2,0,.5-.2.5-.4L13,17a9.5,9.5,0,0,0,1.7-1l2.5,1a.48.48,0,0,0,.6-.2l2-3.5c.1-.2.1-.5-.1-.6l-2.3-1.6ZM10,13.55a3.5,3.5,0,1,1,3.5-3.5,3.54,3.54,0,0,1-3.5,3.5Z" transform="translate(-0.26 -0.05)"/></g></g></g></svg>